<mxfile host="app.diagrams.net" modified="2021-05-17T12:35:48.501Z" agent="5.0 (Windows NT 10.0; Win64; x64) AppleWebKit/537.36 (KHTML, like Gecko) Chrome/90.0.4430.212 Safari/537.36" etag="xS_PD7NDM50m9PRC05sl" version="14.6.13" type="github">
  <diagram id="ZsC6d2SFQStPOOXKZH7J" name="Page-1">
    <mxGraphModel dx="4798" dy="2300" grid="1" gridSize="10" guides="1" tooltips="1" connect="1" arrows="1" fold="1" page="1" pageScale="1" pageWidth="1100" pageHeight="850" math="0" shadow="0">
      <root>
        <mxCell id="0" />
        <mxCell id="1" parent="0" />
        <mxCell id="KDb8iH3ameHQlDE19G9J-4" value="" style="shape=image;html=1;verticalAlign=top;verticalLabelPosition=bottom;labelBackgroundColor=#ffffff;imageAspect=0;aspect=fixed;image=https://cdn4.iconfinder.com/data/icons/ionicons/512/icon-iphone-128.png" vertex="1" parent="1">
          <mxGeometry x="-1520" y="-720" width="2010" height="2010" as="geometry" />
        </mxCell>
        <mxCell id="KDb8iH3ameHQlDE19G9J-6" value="" style="shape=image;html=1;verticalAlign=top;verticalLabelPosition=bottom;labelBackgroundColor=#ffffff;imageAspect=0;aspect=fixed;image=https://cdn4.iconfinder.com/data/icons/ionicons/512/icon-iphone-128.png" vertex="1" parent="1">
          <mxGeometry x="190" y="-765" width="2040" height="2040" as="geometry" />
        </mxCell>
        <mxCell id="KDb8iH3ameHQlDE19G9J-8" value="" style="rounded=0;whiteSpace=wrap;html=1;fillColor=#ffe6cc;strokeColor=#d79b00;" vertex="1" parent="1">
          <mxGeometry x="-700" width="340" height="60" as="geometry" />
        </mxCell>
        <mxCell id="KDb8iH3ameHQlDE19G9J-9" value="&lt;font style=&quot;font-size: 40px&quot;&gt;&lt;i&gt;cerca&lt;/i&gt;&lt;/font&gt;" style="text;html=1;strokeColor=none;fillColor=none;align=center;verticalAlign=middle;whiteSpace=wrap;rounded=0;" vertex="1" parent="1">
          <mxGeometry x="-800" y="-50" width="380" height="160" as="geometry" />
        </mxCell>
        <mxCell id="KDb8iH3ameHQlDE19G9J-10" value="&lt;font style=&quot;font-size: 56px&quot;&gt;&lt;i&gt;&lt;u&gt;Museo Diffuso&lt;/u&gt;&lt;/i&gt;&lt;/font&gt;" style="text;html=1;strokeColor=none;fillColor=none;align=center;verticalAlign=middle;whiteSpace=wrap;rounded=0;" vertex="1" parent="1">
          <mxGeometry x="-730" y="-180" width="400" height="160" as="geometry" />
        </mxCell>
        <mxCell id="KDb8iH3ameHQlDE19G9J-18" value="" style="rounded=1;fillColor=#253858;strokeColor=none;html=1;fontColor=#ffffff;align=left;fontSize=12;spacingLeft=10" vertex="1" parent="1">
          <mxGeometry x="-310" y="-160" width="100" height="70" as="geometry" />
        </mxCell>
        <mxCell id="KDb8iH3ameHQlDE19G9J-19" value="" style="shape=triangle;direction=south;fillColor=#ffffff;strokeColor=none;html=1" vertex="1" parent="KDb8iH3ameHQlDE19G9J-18">
          <mxGeometry x="1" y="0.5" width="12" height="6" relative="1" as="geometry">
            <mxPoint x="-20" y="-3" as="offset" />
          </mxGeometry>
        </mxCell>
        <mxCell id="KDb8iH3ameHQlDE19G9J-44" value="" style="pointerEvents=1;shadow=0;dashed=0;html=1;strokeColor=none;fillColor=#505050;labelPosition=center;verticalLabelPosition=bottom;verticalAlign=top;outlineConnect=0;align=center;shape=mxgraph.office.concepts.writing_pen;" vertex="1" parent="1">
          <mxGeometry x="-540" width="40" height="44" as="geometry" />
        </mxCell>
        <mxCell id="KDb8iH3ameHQlDE19G9J-50" value="" style="shape=image;html=1;verticalAlign=top;verticalLabelPosition=bottom;labelBackgroundColor=#ffffff;imageAspect=0;aspect=fixed;image=https://cdn3.iconfinder.com/data/icons/minimalisticons/28/Frame_2-128.png" vertex="1" parent="1">
          <mxGeometry x="-580" y="100" width="330" height="330" as="geometry" />
        </mxCell>
        <mxCell id="KDb8iH3ameHQlDE19G9J-56" value="" style="shape=image;html=1;verticalAlign=top;verticalLabelPosition=bottom;labelBackgroundColor=#ffffff;imageAspect=0;aspect=fixed;image=https://cdn4.iconfinder.com/data/icons/multimedia-75/512/multimedia-43-128.png" vertex="1" parent="1">
          <mxGeometry x="-870" y="90" width="310" height="310" as="geometry" />
        </mxCell>
        <mxCell id="KDb8iH3ameHQlDE19G9J-57" value="&lt;span style=&quot;font-size: 35px&quot;&gt;autore: Francesco Formigari&lt;/span&gt;" style="text;html=1;strokeColor=none;fillColor=none;align=center;verticalAlign=middle;whiteSpace=wrap;rounded=0;" vertex="1" parent="1">
          <mxGeometry x="930" y="390" width="510" height="40" as="geometry" />
        </mxCell>
        <mxCell id="KDb8iH3ameHQlDE19G9J-58" value="&lt;font style=&quot;font-size: 32px&quot;&gt;luogo di produzione: Verona&lt;/font&gt;" style="text;html=1;strokeColor=none;fillColor=none;align=center;verticalAlign=middle;whiteSpace=wrap;rounded=0;" vertex="1" parent="1">
          <mxGeometry x="950" y="425" width="430" height="80" as="geometry" />
        </mxCell>
        <mxCell id="KDb8iH3ameHQlDE19G9J-61" value="" style="rounded=0;whiteSpace=wrap;html=1;" vertex="1" parent="1">
          <mxGeometry x="887.5" y="-256" width="645" height="80" as="geometry" />
        </mxCell>
        <mxCell id="KDb8iH3ameHQlDE19G9J-63" value="Text" style="text;html=1;strokeColor=none;fillColor=none;align=center;verticalAlign=middle;whiteSpace=wrap;rounded=0;" vertex="1" parent="1">
          <mxGeometry x="840" y="170" width="40" height="20" as="geometry" />
        </mxCell>
        <mxCell id="KDb8iH3ameHQlDE19G9J-64" value="&lt;font style=&quot;font-size: 37px&quot;&gt;romanzi di guerra&amp;nbsp;&lt;/font&gt;" style="text;html=1;strokeColor=none;fillColor=none;align=center;verticalAlign=middle;whiteSpace=wrap;rounded=0;" vertex="1" parent="1">
          <mxGeometry x="940" y="-255" width="410" height="90" as="geometry" />
        </mxCell>
        <mxCell id="KDb8iH3ameHQlDE19G9J-66" value="" style="shape=image;html=1;verticalAlign=top;verticalLabelPosition=bottom;labelBackgroundColor=#ffffff;imageAspect=0;aspect=fixed;image=https://cdn2.iconfinder.com/data/icons/search-outline-24-px/24/loupe_ebook_education_reading_magnifying_glass-128.png" vertex="1" parent="1">
          <mxGeometry x="900" y="-240" width="64" height="64" as="geometry" />
        </mxCell>
        <mxCell id="KDb8iH3ameHQlDE19G9J-67" value="" style="shape=image;html=1;verticalAlign=top;verticalLabelPosition=bottom;labelBackgroundColor=#ffffff;imageAspect=0;aspect=fixed;image=https://cdn0.iconfinder.com/data/icons/feather/96/591269-book-128.png" vertex="1" parent="1">
          <mxGeometry x="980" y="-100" width="440" height="440" as="geometry" />
        </mxCell>
        <mxCell id="KDb8iH3ameHQlDE19G9J-68" value="&lt;font size=&quot;1&quot;&gt;&lt;b style=&quot;font-size: 35px&quot;&gt;quelli che hanno fatto la guerra&lt;/b&gt;&lt;/font&gt;" style="text;html=1;strokeColor=none;fillColor=none;align=center;verticalAlign=middle;whiteSpace=wrap;rounded=0;" vertex="1" parent="1">
          <mxGeometry x="1090" y="-10" width="200" height="140" as="geometry" />
        </mxCell>
        <mxCell id="KDb8iH3ameHQlDE19G9J-70" value="" style="shape=image;html=1;verticalAlign=top;verticalLabelPosition=bottom;labelBackgroundColor=#ffffff;imageAspect=0;aspect=fixed;image=https://cdn4.iconfinder.com/data/icons/feather/24/book-open-128.png" vertex="1" parent="1">
          <mxGeometry x="-800" y="440" width="260" height="260" as="geometry" />
        </mxCell>
        <mxCell id="KDb8iH3ameHQlDE19G9J-71" value="" style="shape=image;html=1;verticalAlign=top;verticalLabelPosition=bottom;labelBackgroundColor=#ffffff;imageAspect=0;aspect=fixed;image=https://cdn2.iconfinder.com/data/icons/picol-vector/32/book_text-128.png" vertex="1" parent="1">
          <mxGeometry x="-500" y="440" width="290" height="290" as="geometry" />
        </mxCell>
        <mxCell id="KDb8iH3ameHQlDE19G9J-72" value="&lt;font style=&quot;font-size: 32px&quot;&gt;editore: Valentino Bompiani&lt;br&gt;&lt;/font&gt;" style="text;html=1;strokeColor=none;fillColor=none;align=center;verticalAlign=middle;whiteSpace=wrap;rounded=0;" vertex="1" parent="1">
          <mxGeometry x="870" y="440" width="570" height="150" as="geometry" />
        </mxCell>
        <mxCell id="KDb8iH3ameHQlDE19G9J-76" value="&lt;font style=&quot;font-size: 32px&quot;&gt;classificazione&lt;/font&gt;&lt;font style=&quot;font-size: 26.6667px&quot;&gt;:&lt;br&gt;&lt;/font&gt;" style="text;html=1;strokeColor=none;fillColor=none;align=center;verticalAlign=middle;whiteSpace=wrap;rounded=0;" vertex="1" parent="1">
          <mxGeometry x="990" y="518" width="150" height="104" as="geometry" />
        </mxCell>
        <mxCell id="KDb8iH3ameHQlDE19G9J-78" value="Text" style="text;html=1;strokeColor=none;fillColor=none;align=center;verticalAlign=middle;whiteSpace=wrap;rounded=0;" vertex="1" parent="1">
          <mxGeometry x="910" y="30" width="40" height="20" as="geometry" />
        </mxCell>
        <mxCell id="KDb8iH3ameHQlDE19G9J-81" value="&lt;font style=&quot;font-size: 32px&quot;&gt;anno pubblicazione:1935&lt;/font&gt;" style="text;html=1;strokeColor=none;fillColor=none;align=center;verticalAlign=middle;whiteSpace=wrap;rounded=0;" vertex="1" parent="1">
          <mxGeometry x="930" y="540" width="410" height="170" as="geometry" />
        </mxCell>
      </root>
    </mxGraphModel>
  </diagram>
</mxfile>
